# xmcd
#
# Track frame offsets: 
#        150
#        16530
#        28231
#        47253
#        60521
#        74467
#        84599
#        101241
#        117614
#        132782
#        143783
#
# Disc length: 2083 seconds
#
# Revision: 0
# Processed by: cddbd v1.5.2PL0 Copyright (c) Steve Scherf et al.
# Submitted via: ExactAudioCopy v0.99pb5
#
DISCID=9208210b
DTITLE=Leon Venerable - From the Backwoods
DYEAR=2005
DGENRE=Country
TTITLE0=American Farmer
TTITLE1=Valley Hobo
TTITLE2=Freedom
TTITLE3=Gone to Heaven
TTITLE4=From the Backwoods
TTITLE5=Little Girls
TTITLE6=Keep on Rollin
TTITLE7=Ole Moonshiner
TTITLE8=Same Old Feeling
TTITLE9=Wild Bull Rider
TTITLE10=Make Me a Star
EXTD=
EXTT0=
EXTT1=
EXTT2=
EXTT3=
EXTT4=
EXTT5=
EXTT6=
EXTT7=
EXTT8=
EXTT9=
EXTT10=
PLAYORDER=
